<svg width="70" height="70" viewBox="0 0 70 70" xmlns="http://www.w3.org/2000/svg" xmlns:xlink="http://www.w3.org/1999/xlink"><title>documents/static/description/icon</title><defs><path d="M4 0h61c4 0 5 1 5 5v60c0 4-1 5-5 5H4c-3 0-4-1-4-5V5c0-4 1-5 4-5z" id="a"/><linearGradient x1="100%" y1="0%" x2="0%" y2="98.616%" id="c"><stop stop-color="#797C79" offset="0%"/><stop stop-color="#545554" offset="100%"/></linearGradient></defs><g fill="none" fill-rule="evenodd"><mask id="b" fill="#fff"><use xlink:href="#a"/></mask><g mask="url(#b)"><path fill="url(#c)" d="M0 0H70V70H0z"/><path d="M4 1h61c2.667 0 4.333.667 5 2V0H0v3c.667-1.333 2-2 4-2z" fill="#FFF" fill-opacity=".383"/><path d="M4 69c-2 0-4-.143-4-4V40.04L18 17l3-3h28v3.5h3V26h4.5v26l-13 17H4z" fill="#393939" opacity=".324"/><path d="M4 69h61c2.667 0 4.333-1 5-3v4H0v-4c.667 2 2 3 4 3z" fill="#000" fill-opacity=".383"/><path d="M17 27h-1a2 2 0 0 0-2 2v23.91a2 2 0 0 0 2 2h37.801a2 2 0 0 0 2-2V29a2 2 0 0 0-2-2H53m-1.01 3v-9a2 2 0 0 0-2-2H20.01a2 2 0 0 0-2 2v9m31.148-11H20.842v-1a2 2 0 0 1 2-2h24.316a2 2 0 0 1 2 2v1zM25.5 24H46 25.5zm5 3.25h9-9zm2 3.25h5-5z" stroke="#000" stroke-width="2" opacity=".302"/><path d="M53.643 44.571c0-1.104-.27-2.116-.813-3.046a6.042 6.042 0 0 0-2.212-2.212 5.929 5.929 0 0 0-3.047-.813c-1.104 0-2.116.27-3.046.813a6.042 6.042 0 0 0-2.212 2.212 5.929 5.929 0 0 0-.813 3.046c0 1.105.27 2.117.813 3.047a6.042 6.042 0 0 0 2.212 2.212c.93.542 1.942.813 3.046.813 1.105 0 2.117-.27 3.047-.813a6.042 6.042 0 0 0 2.212-2.212c.542-.93.813-1.942.813-3.047z" stroke="#000" opacity=".3"/><path d="M51.487 44.124a.452.452 0 0 0-.131-.333l-.66-.653a.446.446 0 0 0-.327-.138.446.446 0 0 0-.326.138l-2.96 2.952-1.64-1.64a.446.446 0 0 0-.326-.137.446.446 0 0 0-.326.138l-.66.653a.452.452 0 0 0-.131.334c0 .13.044.239.13.326l2.627 2.626c.092.092.2.138.326.138.13 0 .242-.046.334-.138l3.939-3.94a.443.443 0 0 0 .13-.326z" fill="#000" fill-rule="nonzero" opacity=".3"/><path d="M17 25h-1a2 2 0 0 0-2 2v23.91a2 2 0 0 0 2 2h37.801a2 2 0 0 0 2-2V27a2 2 0 0 0-2-2H53m-1.01 3v-9a2 2 0 0 0-2-2H20.01a2 2 0 0 0-2 2v9m31.148-11H20.842v-1a2 2 0 0 1 2-2h24.316a2 2 0 0 1 2 2v1zM25.5 22H46 25.5zm5 3.25h9-9zm2 3.25h5-5z" stroke="#FFF" stroke-width="2"/><path d="M16 52.91a2 2 0 0 1-2-2V30a2 2 0 0 1 2-2h10.851a1 1 0 0 1 .814.42l2.992 4.196a1 1 0 0 0 .815.42h7.034a1 1 0 0 0 .811-.416l3.028-4.204a1 1 0 0 1 .812-.416H53.8a2 2 0 0 1 2 2v20.91a2 2 0 0 1-2 2H16zm37.143-9.339a5.45 5.45 0 0 0-.747-2.796 5.546 5.546 0 0 0-2.028-2.028A5.45 5.45 0 0 0 47.571 38a5.45 5.45 0 0 0-2.796.747 5.546 5.546 0 0 0-2.028 2.028A5.45 5.45 0 0 0 42 43.57c0 1.011.25 1.943.747 2.797a5.546 5.546 0 0 0 2.028 2.028 5.45 5.45 0 0 0 2.796.747 5.45 5.45 0 0 0 2.797-.747 5.546 5.546 0 0 0 2.028-2.028 5.45 5.45 0 0 0 .747-2.797zm-1.656-1.447a.452.452 0 0 0-.131-.333l-.66-.653a.446.446 0 0 0-.327-.138.446.446 0 0 0-.326.138l-2.96 2.952-1.64-1.64a.446.446 0 0 0-.326-.137.446.446 0 0 0-.326.138l-.66.653a.452.452 0 0 0-.131.334c0 .13.044.239.13.326l2.627 2.626c.092.092.2.138.326.138.13 0 .242-.046.334-.138l3.939-3.94a.443.443 0 0 0 .13-.326z" fill="#FFF" fill-rule="nonzero"/></g></g></svg>
